# xmcd CD database file
#
# Track frame offsets:
#	150
#	27447
#	46976
#	61555
#	89863
#	108278
#	124052
#	146668
#	173459
#	186639
#	218438
#	244453
#	256516
#	264748
#	271560
#	278654
#	286350
#
# Disc length: 4094 seconds
#
# Revision: 0
# Processed by: cddbd v1.5.1PL2 Copyright (c) Steve Scherf et al.
# Submitted via: CDex 1.51
#
DISCID=f50ffc11
DTITLE=Ruben Barbieri - Radio Auditions - El Perseguidor
DYEAR=2005
DGENRE=Jazz
TTITLE0=La Calle Del Delfin Verde
TTITLE1=Vida Facil
TTITLE2=Como Tu
TTITLE3=Todo De Ti
TTITLE4=Cloe
TTITLE5=Tu Dulce Manera
TTITLE6=Te Adoro
TTITLE7=Stella A La Luz De Las Estrellas
TTITLE8=Cuatro
TTITLE9=Enamorandose Del Amor
TTITLE10=Recordaré Abril
TTITLE11=El Perseguidor
TTITLE12=Greetings
TTITLE13=Greetings and Breakdown
TTITLE14=Meeting
TTITLE15=Meeting Encore
TTITLE16=Desolate
EXTD=YEAR: 2005
EXTT0=
EXTT1=
EXTT2=
EXTT3=
EXTT4=
EXTT5=
EXTT6=
EXTT7=
EXTT8=
EXTT9=
EXTT10=
EXTT11=
EXTT12=
EXTT13=
EXTT14=
EXTT15=
EXTT16=
PLAYORDER=
